<svg width="129" height="126" viewBox="0 0 129 126" fill="none" xmlns="http://www.w3.org/2000/svg">
<path d="M99.0871 20.4706C96.444 26.5058 92.2211 32.583 88.7422 36.5526C85.56 40.4016 84.9854 47.1171 86.1658 46.9838C90.4834 46.0661 94.6558 44.4975 98.8439 43.4584C100.93 43.7211 104.156 44.2296 107.35 46.4779C113.495 50.8033 121.997 56.2522 122.753 63.8775C123.141 67.7911 122.875 70.9283 122.353 73.0146C121.832 75.1008 120.517 77.7075 117.765 78.889C113.181 80.8575 91.8519 76.6459 90.9775 86.6535C90.201 95.5395 89.3394 102.216 88.8912 104.653C87.8324 110.41 86.7725 118.967 81.1463 119.539C76.0523 120.057 71.539 120.024 69.1387 119.135C64.5545 117.437 56.7549 116.355 53.9744 110.484C50.2019 102.52 50.3115 98.2752 49.1509 90.8848C48.8843 89.1868 48.3666 88.1515 45.8412 87.6339C43.3158 87.1163 38.8915 86.8614 36.1826 87.2496C29.7788 88.1672 24.3464 92.2 13.7007 89.9867C9.92827 89.2024 7.01457 87.9018 6.14795 85.5319C5.76364 84.481 5.91188 83.4044 6.55185 81.8614C9.70082 74.2694 12.7701 67.8723 16.6222 65.1441C20.681 62.2697 26.2659 62.0432 29.0298 58.4776C29.5435 57.8149 29.2847 56.7796 28.4886 56.262C27.6926 55.7444 26.3762 55.861 24.6848 55.4777C17.7634 53.9091 9.68887 53.301 7.71265 46.0308C7.06561 43.6505 6.73468 40.2242 7.33226 37.9369C8.90083 31.9331 10.6787 25.326 14.9203 22.0078C18.5947 19.1334 32.1542 15.9117 41.4648 19.0197C44.202 19.9334 47.3793 21.0663 48.249 23.6039C49.6842 27.792 53.1705 36.7677 53.0802 34.0193C52.8057 25.6587 50.9642 20.7393 52.5587 16.5138C54.139 12.3257 56.6267 5.86616 62.7977 5.9376C75.3308 6.08269 81.6956 7.36221 88.2599 10.0003C92.8362 11.8394 101.251 15.5306 99.0871 20.4706Z" fill="#E50D8C" stroke="#FFDAF0" stroke-width="11.874" stroke-linecap="round"/>
<path d="M67.4791 50.2783C67.3559 50.898 66.9826 51.8909 66.4236 52.9184C65.8348 54.0007 65.2431 55.3102 64.0001 56.6195C63.4246 57.2257 61.9545 58.1733 58.7023 59.1681C54.0947 60.5775 50.9314 59.5507 50.714 59.0234C50.233 57.8572 50.1214 56.0754 50.4919 54.3294C50.8073 52.8429 51.8609 51.8984 52.3574 51.4635C52.7983 51.0772 53.4156 50.9633 54.0362 50.87C54.6507 50.7776 55.59 51.4542 56.6156 52.5106C57.9666 53.9022 57.9604 57.9083 57.1877 60.8451C56.3358 64.0828 53.4884 64.8289 50.0411 67.0061C48.106 68.2283 45.7726 69.1852 43.6906 69.8123C43.1768 69.9671 42.7266 69.8758 42.6277 69.691C41.9374 68.4015 46.6125 66.3445 49.6464 64.8402C51.495 63.9235 52.8538 63.4067 54.0054 63.0335C55.2235 62.6386 57.0197 64.1458 63.8125 66.7551C65.7556 67.5015 66.419 68.0075 66.8539 68.4722C67.3461 68.9982 67.3541 69.9336 67.4474 70.9256C67.5634 72.159 66.4321 75.0793 64.5684 78.87C63.3353 81.3783 62.4416 82.3789 62.1617 82.4125C61.5154 82.4901 61.8817 80.4602 61.6325 78.4772C61.2932 75.7762 62.3091 72.5671 63.4271 69.8944C64.5911 67.1117 66.6019 65.5307 69.1486 63.5364C71.3356 61.8239 75.4301 62.537 77.8294 62.4409C79.6985 62.366 81.2216 63.2798 82.3405 63.5589C82.7947 63.6721 82.9667 63.8995 83.0619 64.395C83.3071 65.6714 82.8491 66.8857 82.2285 67.4765C81.2064 68.4494 79.4317 68.3826 78.0001 68.5375C75.276 68.8323 72.5371 67.274 70.75 65.806C68.9714 64.3451 68.4161 63.0372 67.3289 61.5468C65.397 58.8986 65.2431 57.1915 64.8363 55.8823C64.4703 54.7048 64.3696 53.7051 64.3986 49.1454C64.4048 48.1612 64.6757 47.9192 64.8941 47.6999C65.8385 46.7515 66.9789 46.4223 67.4754 46.2664C67.716 46.1909 67.9719 46.2954 68.0988 46.6659C68.2257 47.7139 68.0409 48.7814 67.7301 49.4646C67.6042 49.7781 67.5426 50.0245 67.4791 50.2783Z" stroke="#FFFFBC" stroke-width="1.31934" stroke-linecap="round"/>
</svg>
