<svg width="161" height="66" viewBox="0 0 161 66" fill="none" xmlns="http://www.w3.org/2000/svg">
<path d="M159.021 10.8059C157.112 10.4577 153.66 9.82812 148.822 8.99917M148.822 8.99917C142.827 7.97204 134.703 6.63885 124.746 5.15562M148.822 8.99917C150.487 10.3468 152.102 12.3859 153.59 15.6673C154.803 18.3421 155.471 22.6554 153.509 26.9366C152.089 30.0333 150.969 32.4325 149.445 34.0927C148.406 35.2262 147.453 36.5693 146.249 38.0068M148.822 8.99917C146.766 7.336 144.632 6.7262 142.562 6.13455L142.424 6.09493C139.546 5.27162 130.282 3.23086 116.2 1.43206C113.94 1.14338 111.799 1.03564 109.773 1.05708M124.746 5.15562C124.355 5.09734 123.961 5.03883 123.564 4.98009C115.159 3.73622 108.693 4.19233 99.8857 5.55654C91.0782 6.92075 80.0717 9.53251 73.3785 11.3329C64.6103 13.6914 55.3449 17.2629 41.8191 20.7527C28.0055 24.3168 20.9169 25.0639 16.931 26.1654M124.746 5.15562C136.132 12.9608 141.677 21.6721 143.714 26.0443C145.005 29.747 147.059 33.8629 146.249 38.0068M124.746 5.15562C124.701 5.12434 124.655 5.09307 124.609 5.06182C120.579 3.54907 115.264 2.31901 109.773 1.05708M16.931 26.1654C15.3817 26.5934 14.3012 27.0751 13.4767 27.7964C12.7383 28.4424 11.9523 29.1891 11.1466 30.0109M16.931 26.1654C18.5592 25.2097 20.3457 24.2504 22.3066 23.2944C32.9452 18.1076 39.6096 14.6764 44.5802 12.4725C48.7122 10.6404 55.3245 6.56259 66.2469 6.71141C71.6609 6.78518 80.2838 6.27052 90.8474 4.18788C95.4815 3.27424 101.712 1.14242 109.773 1.05708M16.931 26.1654C14.726 27.4595 12.8112 28.747 11.1466 30.0109M11.1466 30.0109C10.4176 30.7546 9.67247 31.5597 8.93185 32.4072C7.60993 33.92 7.31799 36.5223 7.2708 38.8428C7.1764 43.4842 11.9894 47.212 15.9253 53.2492C18.3371 56.9485 21.5962 59.2211 25.3734 60.6732M11.1466 30.0109C5.72483 34.1278 2.958 37.9943 1.46558 41.023C0.536456 42.9085 1.16136 45.2524 1.91903 47.3309C3.29334 51.1011 7.26109 54.3907 14.4475 58.6956C18.2141 60.9519 22.0087 61.0135 25.3734 60.6732M25.3734 60.6732C31.7202 63.1132 39.5298 63.2365 47.2392 63.9187C61.9371 65.2194 72.0151 61.8237 75.4731 61.0313C76.6138 60.7699 78.5067 60.3909 81.0266 59.8831M25.3734 60.6732C27.6281 60.4451 29.6897 60.0367 31.4203 59.9872C35.1292 59.8814 39.7996 59.3149 44.099 59.1892C47.7975 59.0811 52.3327 59.2679 58.1525 59.163C65.4888 59.0307 71.8191 59.7116 76.0582 59.9638C77.802 60.0675 79.4034 60.023 81.0266 59.8831M81.0266 59.8831C87.2392 58.6313 97.2631 56.5974 109.222 53.6168C117.839 51.4693 121.401 50.3558 128.177 48.4927C138.918 45.5393 143.326 41.4951 146.249 38.0068M81.0266 59.8831C83.4242 59.6765 85.8697 59.2617 88.893 58.8092C95.239 57.8594 99.9906 57.3378 120.236 54.3077C128.876 53.0145 132.154 50.7617 135.488 49.6822C140.098 48.1894 143.822 44.0867 145.62 40.0053C145.914 39.3395 146.118 38.6728 146.249 38.0068M109.773 1.05708C109.691 1.03814 109.609 1.0192 109.526 1.00024" stroke="#99FF92" stroke-width="2" stroke-linecap="round"/>
</svg>
